<svg id="Ebene_1" data-name="Ebene 1" xmlns="http://www.w3.org/2000/svg" viewBox="0 0 360.5 216.62"><defs><style>.cls-1{fill:#1d1d1b;}.cls-2{fill:none;}.cls-2,.cls-3,.cls-4{stroke:#1d1d1b;}.cls-3{fill:#13a538;}.cls-4{fill:#e30613;}.cls-5{fill:#fff;}</style></defs><title>lock-chart</title><path class="cls-1" d="M16.53,12H15.07L12.45,9.13l-0.71.68V12h-1.1V2.88h1.1V8.73l3.18-3.28H16.3l-3,3Z" transform="translate(0 -2.88)"/><path class="cls-1" d="M23,8.84H18.22a2.79,2.79,0,0,0,.18,1.05,1.94,1.94,0,0,0,1.22,1.16,2.89,2.89,0,0,0,.92.14,3.65,3.65,0,0,0,1.34-.27,3.31,3.31,0,0,0,1-.52h0.06v1.2a9.09,9.09,0,0,1-1.14.39,4.61,4.61,0,0,1-1.22.16A3.51,3.51,0,0,1,18,11.27a3.32,3.32,0,0,1-.91-2.5A3.6,3.6,0,0,1,18,6.22a3,3,0,0,1,2.31-.94,2.65,2.65,0,0,1,2,.77A3.11,3.11,0,0,1,23,8.24v0.6ZM22,8a2,2,0,0,0-.44-1.34,1.68,1.68,0,0,0-1.31-.47,1.91,1.91,0,0,0-1.41.52A2,2,0,0,0,18.22,8H22Z" transform="translate(0 -2.88)"/><path class="cls-1" d="M30.38,5.46l-3.82,9H25.38l1.22-2.73L24,5.46h1.2l2,4.85,2-4.85h1.15Z" transform="translate(0 -2.88)"/><path class="cls-1" d="M43.34,7.42H36.39V6.48h6.95V7.42Zm0,2.46H36.39V8.94h6.95V9.88Z" transform="translate(0 -2.88)"/><path class="cls-1" d="M57,12H55.81L55,9.57H51.18L50.32,12H49.14l3.18-8.72h1.55ZM54.59,8.57L53.06,4.29,51.53,8.57h3.06Z" transform="translate(0 -2.88)"/><path class="cls-1" d="M16.53,48H15.07l-2.62-2.87-0.71.68V48h-1.1V38.88h1.1v5.85l3.18-3.28H16.3l-3,3Z" transform="translate(0 -2.88)"/><path class="cls-1" d="M23,44.84H18.22a2.79,2.79,0,0,0,.18,1.05,1.94,1.94,0,0,0,1.22,1.16,2.89,2.89,0,0,0,.92.14,3.65,3.65,0,0,0,1.34-.27,3.31,3.31,0,0,0,1-.52h0.06v1.2a9.09,9.09,0,0,1-1.14.39,4.61,4.61,0,0,1-1.22.16A3.51,3.51,0,0,1,18,47.27a3.32,3.32,0,0,1-.91-2.5A3.6,3.6,0,0,1,18,42.22a3,3,0,0,1,2.31-.94,2.65,2.65,0,0,1,2,.77,3.11,3.11,0,0,1,.72,2.2v0.6ZM22,44a2,2,0,0,0-.44-1.34,1.68,1.68,0,0,0-1.31-.47,1.91,1.91,0,0,0-1.41.52A2,2,0,0,0,18.22,44H22Z" transform="translate(0 -2.88)"/><path class="cls-1" d="M30.38,41.46l-3.82,9H25.38l1.22-2.73L24,41.46h1.2l2,4.85,2-4.85h1.15Z" transform="translate(0 -2.88)"/><path class="cls-1" d="M43.34,43.42H36.39V42.48h6.95v0.94Zm0,2.46H36.39V44.94h6.95v0.94Z" transform="translate(0 -2.88)"/><path class="cls-1" d="M56.74,45.32a2.56,2.56,0,0,1-.25,1.15,2.32,2.32,0,0,1-.66.82,3.07,3.07,0,0,1-1.08.55,5.7,5.7,0,0,1-1.5.16H50.16V39.28h2.58a10.63,10.63,0,0,1,1.43.07,2.91,2.91,0,0,1,.91.29,1.62,1.62,0,0,1,.7.65,1.94,1.94,0,0,1,.22.95,1.75,1.75,0,0,1-.32,1.06,2.28,2.28,0,0,1-.84.7v0a2.41,2.41,0,0,1,1.39.78A2.23,2.23,0,0,1,56.74,45.32Zm-2-3.93a1.21,1.21,0,0,0-.11-0.53,0.82,0.82,0,0,0-.34-0.35,1.65,1.65,0,0,0-.67-0.2q-0.39,0-1,0H51.32v2.52h1.5a5.33,5.33,0,0,0,.87-0.06,1.61,1.61,0,0,0,.6-0.23A1,1,0,0,0,54.68,42,1.73,1.73,0,0,0,54.79,41.38Zm0.74,4a1.86,1.86,0,0,0-.16-0.84A1.27,1.27,0,0,0,54.8,44a1.93,1.93,0,0,0-.68-0.19,9.16,9.16,0,0,0-1,0H51.32V47h1.54a8,8,0,0,0,1.25-.08,2,2,0,0,0,.8-0.29,1.47,1.47,0,0,0,.48-0.52A1.64,1.64,0,0,0,55.54,45.36Z" transform="translate(0 -2.88)"/><path class="cls-1" d="M16.53,84H15.07l-2.62-2.87-0.71.68V84h-1.1V74.88h1.1v5.85l3.18-3.28H16.3l-3,3Z" transform="translate(0 -2.88)"/><path class="cls-1" d="M23,80.84H18.22a2.79,2.79,0,0,0,.18,1.05,1.94,1.94,0,0,0,1.22,1.16,2.89,2.89,0,0,0,.92.14,3.65,3.65,0,0,0,1.34-.27,3.31,3.31,0,0,0,1-.52h0.06v1.2a9.09,9.09,0,0,1-1.14.39,4.61,4.61,0,0,1-1.22.16A3.51,3.51,0,0,1,18,83.27a3.32,3.32,0,0,1-.91-2.5A3.6,3.6,0,0,1,18,78.22a3,3,0,0,1,2.31-.94,2.65,2.65,0,0,1,2,.77,3.11,3.11,0,0,1,.72,2.2v0.6ZM22,80a2,2,0,0,0-.44-1.34,1.68,1.68,0,0,0-1.31-.47,1.91,1.91,0,0,0-1.41.52A2,2,0,0,0,18.22,80H22Z" transform="translate(0 -2.88)"/><path class="cls-1" d="M30.38,77.46l-3.82,9H25.38l1.22-2.73L24,77.46h1.2l2,4.85,2-4.85h1.15Z" transform="translate(0 -2.88)"/><path class="cls-1" d="M43.34,79.42H36.39V78.48h6.95v0.94Zm0,2.46H36.39V80.94h6.95v0.94Z" transform="translate(0 -2.88)"/><path class="cls-1" d="M57,84H55.81L55,81.57H51.18L50.32,84H49.14l3.18-8.72h1.55Zm-2.45-3.43-1.53-4.28-1.54,4.28h3.06Z" transform="translate(0 -2.88)"/><path class="cls-1" d="M158,164.94a6,6,0,0,1-.68.13,4.64,4.64,0,0,1-.65.05,2,2,0,0,1-1.52-.54,2.42,2.42,0,0,1-.52-1.73v-3.48h-0.74v-0.93h0.74v-1.88h1.1v1.88H158v0.93h-2.27v3q0,0.52,0,.81a1.32,1.32,0,0,0,.16.54,0.79,0.79,0,0,0,.35.34,1.66,1.66,0,0,0,.69.11,2.16,2.16,0,0,0,.56-0.08l0.42-.13H158v1Z" transform="translate(0 -2.88)"/><path class="cls-1" d="M160.5,157.36h-1.24v-1.14h1.24v1.14ZM160.43,165h-1.1v-6.54h1.1V165Z" transform="translate(0 -2.88)"/><path class="cls-1" d="M172.16,165h-1.1v-3.73q0-.42,0-0.81a1.72,1.72,0,0,0-.16-0.63,0.89,0.89,0,0,0-.39-0.38,1.63,1.63,0,0,0-.73-0.13,2.05,2.05,0,0,0-.93.23,5.67,5.67,0,0,0-.93.59q0,0.13,0,.31t0,0.35V165h-1.1v-3.73q0-.43,0-0.82a1.71,1.71,0,0,0-.16-0.62,0.87,0.87,0,0,0-.39-0.38,1.67,1.67,0,0,0-.73-0.13,2,2,0,0,0-.91.22,5.41,5.41,0,0,0-.91.57V165h-1.1v-6.54h1.1v0.73a4.84,4.84,0,0,1,1-.67,2.54,2.54,0,0,1,1.09-.24,2.16,2.16,0,0,1,1.13.28,1.73,1.73,0,0,1,.69.78,5.45,5.45,0,0,1,1.22-.81,2.83,2.83,0,0,1,1.18-.25,1.9,1.9,0,0,1,1.59.65,2.89,2.89,0,0,1,.51,1.83V165Z" transform="translate(0 -2.88)"/><path class="cls-1" d="M179.76,161.84h-4.82a2.79,2.79,0,0,0,.18,1.05,1.94,1.94,0,0,0,1.22,1.16,2.89,2.89,0,0,0,.92.14,3.65,3.65,0,0,0,1.34-.27,3.31,3.31,0,0,0,1-.52h0.06v1.2a9.09,9.09,0,0,1-1.14.39,4.61,4.61,0,0,1-1.22.16,3.51,3.51,0,0,1-2.54-.88,3.32,3.32,0,0,1-.91-2.5,3.6,3.6,0,0,1,.88-2.55,3,3,0,0,1,2.31-.94,2.65,2.65,0,0,1,2,.77,3.11,3.11,0,0,1,.72,2.2v0.6Zm-1.07-.84a2,2,0,0,0-.44-1.34,1.68,1.68,0,0,0-1.31-.47,1.91,1.91,0,0,0-1.41.52,2,2,0,0,0-.59,1.29h3.75Z" transform="translate(0 -2.88)"/><line class="cls-2" x1="0.5" y1="54.12" x2="360.5" y2="54.12"/><line class="cls-2" x1="0.5" y1="90.12" x2="360.5" y2="90.12"/><rect class="cls-3" x="99.5" y="45.12" width="198" height="18"/><rect class="cls-4" x="126.5" y="81.12" width="90" height="18"/><rect class="cls-3" x="216.5" y="81.12" width="108" height="18"/><line class="cls-2" x1="0.5" y1="18.12" x2="360.5" y2="18.12"/><rect class="cls-3" x="72.5" y="9.12" width="144" height="18"/><rect class="cls-3" x="0.5" y="189.12" width="36" height="9"/><path class="cls-1" d="M50,200.94a6,6,0,0,1-.68.13,4.64,4.64,0,0,1-.65.05,2,2,0,0,1-1.52-.54,2.42,2.42,0,0,1-.52-1.73v-3.48H45.86v-0.93h0.74v-1.88h1.1v1.88H50v0.93H47.71v3q0,0.52,0,.81a1.32,1.32,0,0,0,.16.54,0.79,0.79,0,0,0,.35.34,1.66,1.66,0,0,0,.69.11,2.16,2.16,0,0,0,.56-0.08l0.42-.13H50v1Z" transform="translate(0 -2.88)"/><path class="cls-1" d="M56.79,201h-1.1v-3.73a6.42,6.42,0,0,0-.05-0.85,1.55,1.55,0,0,0-.19-0.62,0.89,0.89,0,0,0-.42-0.37,1.81,1.81,0,0,0-.71-0.12,2.29,2.29,0,0,0-.94.22,4.81,4.81,0,0,0-.94.57V201h-1.1v-9.12h1.1v3.3a4.48,4.48,0,0,1,1.07-.67,2.8,2.8,0,0,1,1.13-.24,2,2,0,0,1,1.62.64,2.72,2.72,0,0,1,.56,1.84V201Z" transform="translate(0 -2.88)"/><path class="cls-1" d="M64.38,197.84H59.56a2.79,2.79,0,0,0,.18,1.05A1.94,1.94,0,0,0,61,200.05a2.89,2.89,0,0,0,.92.14,3.65,3.65,0,0,0,1.34-.27,3.31,3.31,0,0,0,1-.52h0.06v1.2a9.09,9.09,0,0,1-1.14.39,4.61,4.61,0,0,1-1.22.16,3.51,3.51,0,0,1-2.54-.88,3.32,3.32,0,0,1-.91-2.5,3.6,3.6,0,0,1,.88-2.55,3,3,0,0,1,2.31-.94,2.65,2.65,0,0,1,2,.77,3.11,3.11,0,0,1,.72,2.2v0.6ZM63.31,197a2,2,0,0,0-.44-1.34,1.68,1.68,0,0,0-1.31-.47,1.91,1.91,0,0,0-1.41.52,2,2,0,0,0-.59,1.29h3.75Z" transform="translate(0 -2.88)"/><path class="cls-1" d="M71.14,201H70v-0.7l-0.4.28a2.82,2.82,0,0,1-.48.28,3.28,3.28,0,0,1-.63.23,3.43,3.43,0,0,1-.84.09,2.09,2.09,0,0,1-1.5-.59,2,2,0,0,1-.62-1.49,2.07,2.07,0,0,1,.32-1.2,2.13,2.13,0,0,1,.91-0.72,4.92,4.92,0,0,1,1.44-.36q0.84-.09,1.8-0.14v-0.17a1.31,1.31,0,0,0-.13-0.62,1,1,0,0,0-.38-0.39,1.56,1.56,0,0,0-.56-0.18,4.85,4.85,0,0,0-.69,0,4.65,4.65,0,0,0-1,.11,7.52,7.52,0,0,0-1.1.33H66.16V194.6q0.32-.09.93-0.19a7,7,0,0,1,1.2-.11,5.59,5.59,0,0,1,1.2.11,2.34,2.34,0,0,1,.89.39,1.73,1.73,0,0,1,.56.7,2.57,2.57,0,0,1,.19,1.06V201ZM70,199.39v-1.82l-1.19.09a6.14,6.14,0,0,0-1.08.17,1.78,1.78,0,0,0-.77.42,1.21,1.21,0,0,0,0,1.63,1.59,1.59,0,0,0,1,.28,2.46,2.46,0,0,0,1.06-.23A4.78,4.78,0,0,0,70,199.39Z" transform="translate(0 -2.88)"/><path class="cls-1" d="M78.57,201h-1.1v-0.69a4,4,0,0,1-1,.64,2.73,2.73,0,0,1-1.12.23,2.22,2.22,0,0,1-1.86-.9,4,4,0,0,1-.69-2.5,4.31,4.31,0,0,1,.24-1.48,3.42,3.42,0,0,1,.64-1.11,2.72,2.72,0,0,1,2-.91,3.49,3.49,0,0,1,.91.11,4.24,4.24,0,0,1,.84.34v-2.84h1.1V201Zm-1.1-1.61v-3.76a4.14,4.14,0,0,0-.8-0.28,3.63,3.63,0,0,0-.77-0.08,1.74,1.74,0,0,0-1.44.64,2.86,2.86,0,0,0-.52,1.83,3.24,3.24,0,0,0,.4,1.77,1.42,1.42,0,0,0,1.28.61,2.38,2.38,0,0,0,.95-0.21A4,4,0,0,0,77.47,199.39Z" transform="translate(0 -2.88)"/><path class="cls-1" d="M86.14,193.36H84.9v-1.14h1.24v1.14ZM86.07,201H85v-6.54h1.1V201Z" transform="translate(0 -2.88)"/><path class="cls-1" d="M92.93,199.11a1.78,1.78,0,0,1-.74,1.47,3.23,3.23,0,0,1-2,.57,4.85,4.85,0,0,1-1.33-.17,5.94,5.94,0,0,1-1-.38v-1.24h0.06A4.42,4.42,0,0,0,89,200a3.59,3.59,0,0,0,1.22.23,2.3,2.3,0,0,0,1.14-.23,0.79,0.79,0,0,0,.41-0.74,0.75,0.75,0,0,0-.22-0.59,2,2,0,0,0-.86-0.34l-0.61-.12-0.69-.15a2.29,2.29,0,0,1-1.22-.67,1.67,1.67,0,0,1-.36-1.09,1.78,1.78,0,0,1,.17-0.76,1.84,1.84,0,0,1,.51-0.64,2.43,2.43,0,0,1,.83-0.44,3.73,3.73,0,0,1,1.13-.16,5.09,5.09,0,0,1,1.19.14,4.48,4.48,0,0,1,1,.35V196H92.61a3.94,3.94,0,0,0-1-.52,3.53,3.53,0,0,0-1.18-.21,2.07,2.07,0,0,0-1,.23,0.81,0.81,0,0,0-.16,1.3,2,2,0,0,0,.8.33l0.68,0.14,0.63,0.13a2.33,2.33,0,0,1,1.18.6A1.59,1.59,0,0,1,92.93,199.11Z" transform="translate(0 -2.88)"/><path class="cls-1" d="M102.8,195.66h-0.06l-0.48-.08a4.92,4.92,0,0,0-.55,0,2.27,2.27,0,0,0-1,.23,4.53,4.53,0,0,0-.91.58V201h-1.1v-6.54h1.1v1a5.4,5.4,0,0,1,1.16-.75,2.52,2.52,0,0,1,1-.22h0.42l0.39,0.06v1.13Z" transform="translate(0 -2.88)"/><path class="cls-1" d="M109.27,201h-1.1v-0.73a5.36,5.36,0,0,1-1.07.67,2.66,2.66,0,0,1-1.12.23,2.06,2.06,0,0,1-1.61-.63,2.66,2.66,0,0,1-.57-1.85v-4.25h1.1v3.73a6.63,6.63,0,0,0,0,.85,1.55,1.55,0,0,0,.2.61,0.94,0.94,0,0,0,.41.38,1.8,1.8,0,0,0,.73.12,2.34,2.34,0,0,0,.93-0.22,4.36,4.36,0,0,0,.95-0.57v-4.89h1.1V201Z" transform="translate(0 -2.88)"/><path class="cls-1" d="M116.91,201h-1.1v-3.73a6.42,6.42,0,0,0-.05-0.85,1.55,1.55,0,0,0-.19-0.62,0.89,0.89,0,0,0-.42-0.37,1.81,1.81,0,0,0-.71-0.12,2.29,2.29,0,0,0-.94.22,4.81,4.81,0,0,0-.94.57V201h-1.1v-6.54h1.1v0.73a4.48,4.48,0,0,1,1.07-.67,2.8,2.8,0,0,1,1.13-.24,2,2,0,0,1,1.62.64,2.72,2.72,0,0,1,.56,1.84V201Z" transform="translate(0 -2.88)"/><path class="cls-1" d="M124.5,201h-1.1v-3.73a6.42,6.42,0,0,0-.05-0.85,1.55,1.55,0,0,0-.19-0.62,0.89,0.89,0,0,0-.42-0.37,1.81,1.81,0,0,0-.71-0.12,2.29,2.29,0,0,0-.94.22,4.81,4.81,0,0,0-.94.57V201H119v-6.54h1.1v0.73a4.48,4.48,0,0,1,1.07-.67,2.8,2.8,0,0,1,1.13-.24,2,2,0,0,1,1.62.64,2.72,2.72,0,0,1,.56,1.84V201Z" transform="translate(0 -2.88)"/><path class="cls-1" d="M127.81,193.36h-1.24v-1.14h1.24v1.14ZM127.74,201h-1.1v-6.54h1.1V201Z" transform="translate(0 -2.88)"/><path class="cls-1" d="M135.39,201h-1.1v-3.73a6.42,6.42,0,0,0-.05-0.85,1.55,1.55,0,0,0-.19-0.62,0.89,0.89,0,0,0-.42-0.37,1.81,1.81,0,0,0-.71-0.12,2.29,2.29,0,0,0-.94.22,4.81,4.81,0,0,0-.94.57V201h-1.1v-6.54H131v0.73a4.48,4.48,0,0,1,1.07-.67,2.8,2.8,0,0,1,1.13-.24,2,2,0,0,1,1.62.64,2.72,2.72,0,0,1,.56,1.84V201Z" transform="translate(0 -2.88)"/><path class="cls-1" d="M142.82,200.26a3.4,3.4,0,0,1-.76,2.44,3.11,3.11,0,0,1-2.33.78,6.94,6.94,0,0,1-1-.07,7.88,7.88,0,0,1-1-.21v-1.12h0.06a8.69,8.69,0,0,0,.86.26,4.56,4.56,0,0,0,1.17.16,2.75,2.75,0,0,0,.93-0.13,1.31,1.31,0,0,0,.87-0.93,2.74,2.74,0,0,0,.09-0.72v-0.6a4.25,4.25,0,0,1-1,.59,2.94,2.94,0,0,1-1.16.2,2.27,2.27,0,0,1-1.86-.85,3.69,3.69,0,0,1-.69-2.39,4,4,0,0,1,.24-1.46,3.31,3.31,0,0,1,.65-1.06,2.63,2.63,0,0,1,.93-0.65,2.76,2.76,0,0,1,1.08-.23,3.39,3.39,0,0,1,1,.11,4.19,4.19,0,0,1,.81.35l0.07-.28h1v5.8Zm-1.1-1.05v-3.57a4.27,4.27,0,0,0-.82-0.28,3.42,3.42,0,0,0-.75-0.08,1.78,1.78,0,0,0-1.43.61,2.65,2.65,0,0,0-.52,1.77,3,3,0,0,0,.39,1.67,1.44,1.44,0,0,0,1.28.57,2.69,2.69,0,0,0,1-.18A3.5,3.5,0,0,0,141.72,199.2Z" transform="translate(0 -2.88)"/><path class="cls-1" d="M150.39,193.36h-1.24v-1.14h1.24v1.14ZM150.32,201h-1.1v-6.54h1.1V201Z" transform="translate(0 -2.88)"/><path class="cls-1" d="M158,201h-1.1v-3.73a6.42,6.42,0,0,0-.05-0.85,1.55,1.55,0,0,0-.19-0.62,0.89,0.89,0,0,0-.42-0.37,1.81,1.81,0,0,0-.71-0.12,2.29,2.29,0,0,0-.94.22,4.81,4.81,0,0,0-.94.57V201h-1.1v-6.54h1.1v0.73a4.48,4.48,0,0,1,1.07-.67,2.8,2.8,0,0,1,1.13-.24,2,2,0,0,1,1.62.64,2.72,2.72,0,0,1,.56,1.84V201Z" transform="translate(0 -2.88)"/><path class="cls-1" d="M164.77,199.11a1.78,1.78,0,0,1-.74,1.47,3.23,3.23,0,0,1-2,.57,4.85,4.85,0,0,1-1.33-.17,5.94,5.94,0,0,1-1-.38v-1.24h0.06a4.42,4.42,0,0,0,1.16.62,3.59,3.59,0,0,0,1.22.23,2.3,2.3,0,0,0,1.14-.23,0.79,0.79,0,0,0,.41-0.74,0.75,0.75,0,0,0-.22-0.59,2,2,0,0,0-.86-0.34l-0.61-.12-0.69-.15a2.29,2.29,0,0,1-1.22-.67,1.67,1.67,0,0,1-.36-1.09,1.78,1.78,0,0,1,.17-0.76,1.84,1.84,0,0,1,.51-0.64,2.43,2.43,0,0,1,.83-0.44,3.73,3.73,0,0,1,1.13-.16,5.09,5.09,0,0,1,1.19.14,4.48,4.48,0,0,1,1,.35V196h-0.06a3.94,3.94,0,0,0-1-.52,3.53,3.53,0,0,0-1.18-.21,2.07,2.07,0,0,0-1,.23,0.81,0.81,0,0,0-.16,1.3,2,2,0,0,0,.8.33l0.68,0.14,0.63,0.13a2.33,2.33,0,0,1,1.18.6A1.59,1.59,0,0,1,164.77,199.11Z" transform="translate(0 -2.88)"/><path class="cls-1" d="M167.53,193.36h-1.24v-1.14h1.24v1.14ZM167.46,201h-1.1v-6.54h1.1V201Z" transform="translate(0 -2.88)"/><path class="cls-1" d="M174.95,201h-1.1v-0.69a4,4,0,0,1-1,.64,2.73,2.73,0,0,1-1.12.23,2.22,2.22,0,0,1-1.86-.9,4,4,0,0,1-.69-2.5,4.31,4.31,0,0,1,.24-1.48,3.42,3.42,0,0,1,.64-1.11,2.72,2.72,0,0,1,2-.91,3.49,3.49,0,0,1,.91.11,4.24,4.24,0,0,1,.84.34v-2.84h1.1V201Zm-1.1-1.61v-3.76a4.14,4.14,0,0,0-.8-0.28,3.63,3.63,0,0,0-.77-0.08,1.74,1.74,0,0,0-1.44.64,2.86,2.86,0,0,0-.52,1.83,3.24,3.24,0,0,0,.4,1.77,1.42,1.42,0,0,0,1.28.61,2.38,2.38,0,0,0,.95-0.21A4,4,0,0,0,173.84,199.39Z" transform="translate(0 -2.88)"/><path class="cls-1" d="M182.59,197.84h-4.82a2.79,2.79,0,0,0,.18,1.05,1.94,1.94,0,0,0,1.22,1.16,2.89,2.89,0,0,0,.92.14,3.65,3.65,0,0,0,1.34-.27,3.31,3.31,0,0,0,1-.52h0.06v1.2a9.09,9.09,0,0,1-1.14.39,4.61,4.61,0,0,1-1.22.16,3.51,3.51,0,0,1-2.54-.88,3.32,3.32,0,0,1-.91-2.5,3.6,3.6,0,0,1,.88-2.55,3,3,0,0,1,2.31-.94,2.65,2.65,0,0,1,2,.77,3.11,3.11,0,0,1,.72,2.2v0.6Zm-1.07-.84a2,2,0,0,0-.44-1.34,1.68,1.68,0,0,0-1.31-.47,1.91,1.91,0,0,0-1.41.52,2,2,0,0,0-.59,1.29h3.75Z" transform="translate(0 -2.88)"/><path class="cls-1" d="M194.06,197.73a3.67,3.67,0,0,1-.82,2.53,3.08,3.08,0,0,1-4.4,0,4.31,4.31,0,0,1,0-5.05,3.07,3.07,0,0,1,4.4,0A3.68,3.68,0,0,1,194.06,197.73Zm-1.14,0a3,3,0,0,0-.5-1.89,1.87,1.87,0,0,0-2.77,0,3.8,3.8,0,0,0,0,3.76,1.83,1.83,0,0,0,2.77,0A3,3,0,0,0,192.92,197.73Z" transform="translate(0 -2.88)"/><path class="cls-1" d="M199.29,192.95h-0.06l-0.47-.11a2.8,2.8,0,0,0-.52-0.06,1.43,1.43,0,0,0-1,.31,1.57,1.57,0,0,0-.32,1.13v0.22h2v0.93h-2V201h-1.1v-5.62h-0.74v-0.93h0.74v-0.22a2.53,2.53,0,0,1,.58-1.79,2.18,2.18,0,0,1,1.68-.62,5.68,5.68,0,0,1,.67,0l0.54,0.08v1Z" transform="translate(0 -2.88)"/><path class="cls-1" d="M207.6,200.94a6,6,0,0,1-.68.13,4.64,4.64,0,0,1-.65.05,2,2,0,0,1-1.52-.54,2.42,2.42,0,0,1-.52-1.73v-3.48h-0.74v-0.93h0.74v-1.88h1.1v1.88h2.27v0.93h-2.27v3q0,0.52,0,.81a1.32,1.32,0,0,0,.16.54,0.79,0.79,0,0,0,.35.34,1.66,1.66,0,0,0,.69.11,2.16,2.16,0,0,0,.56-0.08l0.42-.13h0.06v1Z" transform="translate(0 -2.88)"/><path class="cls-1" d="M214.4,201h-1.1v-3.73a6.42,6.42,0,0,0-.05-0.85,1.55,1.55,0,0,0-.19-0.62,0.89,0.89,0,0,0-.42-0.37,1.81,1.81,0,0,0-.71-0.12,2.29,2.29,0,0,0-.94.22,4.81,4.81,0,0,0-.94.57V201h-1.1v-9.12H210v3.3a4.48,4.48,0,0,1,1.07-.67,2.8,2.8,0,0,1,1.13-.24,2,2,0,0,1,1.62.64,2.72,2.72,0,0,1,.56,1.84V201Z" transform="translate(0 -2.88)"/><path class="cls-1" d="M222,197.84h-4.82a2.79,2.79,0,0,0,.18,1.05,1.94,1.94,0,0,0,1.22,1.16,2.89,2.89,0,0,0,.92.14,3.65,3.65,0,0,0,1.34-.27,3.31,3.31,0,0,0,1-.52h0.06v1.2a9.09,9.09,0,0,1-1.14.39,4.61,4.61,0,0,1-1.22.16,3.51,3.51,0,0,1-2.54-.88,3.32,3.32,0,0,1-.91-2.5,3.6,3.6,0,0,1,.88-2.55,3,3,0,0,1,2.31-.94,2.65,2.65,0,0,1,2,.77,3.11,3.11,0,0,1,.72,2.2v0.6Zm-1.07-.84a2,2,0,0,0-.44-1.34,1.68,1.68,0,0,0-1.31-.47,1.91,1.91,0,0,0-1.41.52,2,2,0,0,0-.59,1.29h3.75Z" transform="translate(0 -2.88)"/><path class="cls-1" d="M229,201h-1.1v-9.12H229V201Z" transform="translate(0 -2.88)"/><path class="cls-1" d="M236.76,197.73a3.67,3.67,0,0,1-.82,2.53,3.08,3.08,0,0,1-4.4,0,4.31,4.31,0,0,1,0-5.05,3.07,3.07,0,0,1,4.4,0A3.68,3.68,0,0,1,236.76,197.73Zm-1.14,0a3,3,0,0,0-.5-1.89,1.87,1.87,0,0,0-2.77,0,3.8,3.8,0,0,0,0,3.76,1.83,1.83,0,0,0,2.77,0A3,3,0,0,0,235.63,197.73Z" transform="translate(0 -2.88)"/><path class="cls-1" d="M243.31,200.59a7.11,7.11,0,0,1-1,.41,3.69,3.69,0,0,1-1.05.15,3.9,3.9,0,0,1-1.3-.21,2.66,2.66,0,0,1-1-.63,2.83,2.83,0,0,1-.66-1.07,4.4,4.4,0,0,1-.23-1.51,3.48,3.48,0,0,1,.88-2.52,3.09,3.09,0,0,1,2.33-.91,3.92,3.92,0,0,1,1.1.16,5.78,5.78,0,0,1,1,.39v1.22h-0.06a4.19,4.19,0,0,0-1-.6,2.85,2.85,0,0,0-1-.21,1.85,1.85,0,0,0-1.48.63,3.4,3.4,0,0,0,0,3.67,1.83,1.83,0,0,0,1.49.64,2.75,2.75,0,0,0,.68-0.09,3,3,0,0,0,.62-0.23,5,5,0,0,0,.45-0.26l0.33-.24h0.06v1.21Z" transform="translate(0 -2.88)"/><path class="cls-1" d="M250.66,201h-1.45l-2.62-2.87-0.71.68V201h-1.1v-9.12h1.1v5.85l3.18-3.28h1.39l-3,3Z" transform="translate(0 -2.88)"/><path class="cls-1" d="M257.18,197.84h-4.82a2.79,2.79,0,0,0,.18,1.05,1.94,1.94,0,0,0,1.22,1.16,2.89,2.89,0,0,0,.92.14,3.65,3.65,0,0,0,1.34-.27,3.31,3.31,0,0,0,1-.52H257v1.2a9.09,9.09,0,0,1-1.14.39,4.61,4.61,0,0,1-1.22.16,3.51,3.51,0,0,1-2.54-.88,3.32,3.32,0,0,1-.91-2.5,3.6,3.6,0,0,1,.88-2.55,3,3,0,0,1,2.31-.94,2.65,2.65,0,0,1,2,.77,3.11,3.11,0,0,1,.72,2.2v0.6Zm-1.07-.84a2,2,0,0,0-.44-1.34,1.68,1.68,0,0,0-1.31-.47,1.91,1.91,0,0,0-1.41.52,2,2,0,0,0-.59,1.29h3.75Z" transform="translate(0 -2.88)"/><path class="cls-1" d="M264.16,201h-1.1v-0.69a4,4,0,0,1-1,.64,2.73,2.73,0,0,1-1.12.23,2.22,2.22,0,0,1-1.86-.9,4,4,0,0,1-.69-2.5,4.31,4.31,0,0,1,.24-1.48,3.42,3.42,0,0,1,.64-1.11,2.72,2.72,0,0,1,2-.91,3.49,3.49,0,0,1,.91.11,4.24,4.24,0,0,1,.84.34v-2.84h1.1V201Zm-1.1-1.61v-3.76a4.14,4.14,0,0,0-.8-0.28,3.63,3.63,0,0,0-.77-0.08,1.74,1.74,0,0,0-1.44.64,2.86,2.86,0,0,0-.52,1.83,3.24,3.24,0,0,0,.4,1.77,1.42,1.42,0,0,0,1.28.61,2.38,2.38,0,0,0,.95-0.21A4,4,0,0,0,263.06,199.39Z" transform="translate(0 -2.88)"/><path class="cls-1" d="M275.22,199.11a1.78,1.78,0,0,1-.74,1.47,3.23,3.23,0,0,1-2,.57,4.85,4.85,0,0,1-1.33-.17,5.94,5.94,0,0,1-1-.38v-1.24h0.06a4.42,4.42,0,0,0,1.16.62,3.59,3.59,0,0,0,1.22.23,2.3,2.3,0,0,0,1.14-.23,0.79,0.79,0,0,0,.41-0.74,0.75,0.75,0,0,0-.22-0.59,2,2,0,0,0-.86-0.34l-0.61-.12-0.69-.15a2.29,2.29,0,0,1-1.22-.67,1.67,1.67,0,0,1-.36-1.09,1.78,1.78,0,0,1,.17-0.76,1.84,1.84,0,0,1,.51-0.64,2.43,2.43,0,0,1,.83-0.44,3.73,3.73,0,0,1,1.13-.16,5.09,5.09,0,0,1,1.19.14,4.48,4.48,0,0,1,1,.35V196H274.9a3.94,3.94,0,0,0-1-.52,3.53,3.53,0,0,0-1.18-.21,2.07,2.07,0,0,0-1,.23,0.81,0.81,0,0,0-.16,1.3,2,2,0,0,0,.8.33l0.68,0.14,0.63,0.13a2.33,2.33,0,0,1,1.18.6A1.59,1.59,0,0,1,275.22,199.11Z" transform="translate(0 -2.88)"/><path class="cls-1" d="M282.27,197.84h-4.82a2.79,2.79,0,0,0,.18,1.05,1.94,1.94,0,0,0,1.22,1.16,2.89,2.89,0,0,0,.92.14,3.65,3.65,0,0,0,1.34-.27,3.31,3.31,0,0,0,1-.52h0.06v1.2A9.09,9.09,0,0,1,281,201a4.61,4.61,0,0,1-1.22.16,3.51,3.51,0,0,1-2.54-.88,3.32,3.32,0,0,1-.91-2.5,3.6,3.6,0,0,1,.88-2.55,3,3,0,0,1,2.31-.94,2.65,2.65,0,0,1,2,.77,3.11,3.11,0,0,1,.72,2.2v0.6ZM281.2,197a2,2,0,0,0-.44-1.34,1.68,1.68,0,0,0-1.31-.47,1.91,1.91,0,0,0-1.41.52,2,2,0,0,0-.59,1.29h3.75Z" transform="translate(0 -2.88)"/><path class="cls-1" d="M288.78,200.59a7.11,7.11,0,0,1-1,.41,3.69,3.69,0,0,1-1.05.15,3.9,3.9,0,0,1-1.3-.21,2.66,2.66,0,0,1-1-.63,2.83,2.83,0,0,1-.66-1.07,4.4,4.4,0,0,1-.23-1.51,3.48,3.48,0,0,1,.88-2.52,3.09,3.09,0,0,1,2.33-.91,3.92,3.92,0,0,1,1.1.16,5.78,5.78,0,0,1,1,.39v1.22h-0.06a4.19,4.19,0,0,0-1-.6,2.85,2.85,0,0,0-1-.21,1.85,1.85,0,0,0-1.48.63,3.4,3.4,0,0,0,0,3.67,1.83,1.83,0,0,0,1.49.64,2.75,2.75,0,0,0,.68-0.09,3,3,0,0,0,.62-0.23,5,5,0,0,0,.45-0.26l0.33-.24h0.06v1.21Z" transform="translate(0 -2.88)"/><path class="cls-1" d="M293.59,200.94a6,6,0,0,1-.68.13,4.64,4.64,0,0,1-.65.05,2,2,0,0,1-1.52-.54,2.42,2.42,0,0,1-.52-1.73v-3.48h-0.74v-0.93h0.74v-1.88h1.1v1.88h2.27v0.93h-2.27v3q0,0.52,0,.81a1.32,1.32,0,0,0,.16.54,0.79,0.79,0,0,0,.35.34,1.66,1.66,0,0,0,.69.11,2.16,2.16,0,0,0,.56-0.08l0.42-.13h0.06v1Z" transform="translate(0 -2.88)"/><path class="cls-1" d="M296.11,193.36h-1.24v-1.14h1.24v1.14ZM296,201h-1.1v-6.54H296V201Z" transform="translate(0 -2.88)"/><path class="cls-1" d="M303.8,197.73a3.67,3.67,0,0,1-.82,2.53,3.08,3.08,0,0,1-4.4,0,4.31,4.31,0,0,1,0-5.05,3.07,3.07,0,0,1,4.4,0A3.68,3.68,0,0,1,303.8,197.73Zm-1.14,0a3,3,0,0,0-.5-1.89,1.87,1.87,0,0,0-2.77,0,3.8,3.8,0,0,0,0,3.76,1.83,1.83,0,0,0,2.77,0A3,3,0,0,0,302.66,197.73Z" transform="translate(0 -2.88)"/><path class="cls-1" d="M311,201h-1.1v-3.73a6.42,6.42,0,0,0-.05-0.85,1.55,1.55,0,0,0-.19-0.62,0.89,0.89,0,0,0-.42-0.37,1.81,1.81,0,0,0-.71-0.12,2.29,2.29,0,0,0-.94.22,4.81,4.81,0,0,0-.94.57V201h-1.1v-6.54h1.1v0.73a4.48,4.48,0,0,1,1.07-.67,2.8,2.8,0,0,1,1.13-.24,2,2,0,0,1,1.62.64,2.72,2.72,0,0,1,.56,1.84V201Z" transform="translate(0 -2.88)"/><rect class="cls-4" x="0.5" y="207.12" width="36" height="9"/><path class="cls-1" d="M50,218.94a6,6,0,0,1-.68.13,4.64,4.64,0,0,1-.65.05,2,2,0,0,1-1.52-.54,2.42,2.42,0,0,1-.52-1.73v-3.48H45.86v-0.93h0.74v-1.88h1.1v1.88H50v0.93H47.71v3q0,0.52,0,.81a1.32,1.32,0,0,0,.16.54,0.79,0.79,0,0,0,.35.34,1.66,1.66,0,0,0,.69.11,2.16,2.16,0,0,0,.56-0.08l0.42-.13H50v1Z" transform="translate(0 -2.88)"/><path class="cls-1" d="M56.79,219h-1.1v-3.73a6.42,6.42,0,0,0-.05-0.85,1.55,1.55,0,0,0-.19-0.62,0.89,0.89,0,0,0-.42-0.37,1.81,1.81,0,0,0-.71-0.12,2.29,2.29,0,0,0-.94.22,4.81,4.81,0,0,0-.94.57V219h-1.1v-9.12h1.1v3.3a4.48,4.48,0,0,1,1.07-.67,2.8,2.8,0,0,1,1.13-.24,2,2,0,0,1,1.62.64,2.72,2.72,0,0,1,.56,1.84V219Z" transform="translate(0 -2.88)"/><path class="cls-1" d="M63,213.66H62.93l-0.48-.08a4.92,4.92,0,0,0-.55,0,2.27,2.27,0,0,0-1,.23,4.53,4.53,0,0,0-.91.58V219h-1.1v-6.54H60v1a5.4,5.4,0,0,1,1.16-.75,2.52,2.52,0,0,1,1-.22H62.6L63,212.53v1.13Z" transform="translate(0 -2.88)"/><path class="cls-1" d="M69.51,215.84H64.68a2.79,2.79,0,0,0,.18,1.05,1.94,1.94,0,0,0,1.22,1.16,2.89,2.89,0,0,0,.92.14,3.65,3.65,0,0,0,1.34-.27,3.31,3.31,0,0,0,1-.52h0.06v1.2a9.09,9.09,0,0,1-1.14.39,4.61,4.61,0,0,1-1.22.16,3.51,3.51,0,0,1-2.54-.88,3.32,3.32,0,0,1-.91-2.5,3.6,3.6,0,0,1,.88-2.55,3,3,0,0,1,2.31-.94,2.65,2.65,0,0,1,2,.77,3.11,3.11,0,0,1,.72,2.2v0.6ZM68.43,215a2,2,0,0,0-.44-1.34,1.68,1.68,0,0,0-1.31-.47,1.91,1.91,0,0,0-1.41.52,2,2,0,0,0-.59,1.29h3.75Z" transform="translate(0 -2.88)"/><path class="cls-1" d="M76.26,219h-1.1v-0.7l-0.4.28a2.82,2.82,0,0,1-.48.28,3.28,3.28,0,0,1-.63.23,3.43,3.43,0,0,1-.84.09,2.09,2.09,0,0,1-1.5-.59,2,2,0,0,1-.62-1.49,2.07,2.07,0,0,1,.32-1.2,2.13,2.13,0,0,1,.91-0.72,4.92,4.92,0,0,1,1.44-.36q0.84-.09,1.8-0.14v-0.17a1.31,1.31,0,0,0-.13-0.62,1,1,0,0,0-.38-0.39,1.56,1.56,0,0,0-.56-0.18,4.85,4.85,0,0,0-.69,0,4.65,4.65,0,0,0-1,.11,7.52,7.52,0,0,0-1.1.33H71.28V212.6q0.32-.09.93-0.19a7,7,0,0,1,1.2-.11,5.59,5.59,0,0,1,1.2.11,2.34,2.34,0,0,1,.89.39,1.73,1.73,0,0,1,.56.7,2.57,2.57,0,0,1,.19,1.06V219Zm-1.1-1.61v-1.82l-1.19.09a6.14,6.14,0,0,0-1.08.17,1.78,1.78,0,0,0-.77.42,1.21,1.21,0,0,0,0,1.63,1.59,1.59,0,0,0,1,.28,2.46,2.46,0,0,0,1.06-.23A4.78,4.78,0,0,0,75.17,217.39Z" transform="translate(0 -2.88)"/><path class="cls-1" d="M83.69,219h-1.1v-0.69a4,4,0,0,1-1,.64,2.73,2.73,0,0,1-1.12.23,2.22,2.22,0,0,1-1.86-.9,4,4,0,0,1-.69-2.5,4.31,4.31,0,0,1,.24-1.48,3.42,3.42,0,0,1,.64-1.11,2.72,2.72,0,0,1,2-.91,3.49,3.49,0,0,1,.91.11,4.24,4.24,0,0,1,.84.34v-2.84h1.1V219Zm-1.1-1.61v-3.76a4.14,4.14,0,0,0-.8-0.28,3.63,3.63,0,0,0-.77-0.08,1.74,1.74,0,0,0-1.44.64,2.86,2.86,0,0,0-.52,1.83,3.24,3.24,0,0,0,.4,1.77,1.42,1.42,0,0,0,1.28.61,2.38,2.38,0,0,0,.95-0.21A4,4,0,0,0,82.59,217.39Z" transform="translate(0 -2.88)"/><path class="cls-1" d="M98.31,212.46L96.61,219h-1l-1.68-5-1.67,5h-1l-1.72-6.54h1.15l1.2,5.07,1.63-5.07h0.91l1.68,5.07,1.14-5.07h1.11Z" transform="translate(0 -2.88)"/><path class="cls-1" d="M104.87,219h-1.1v-0.7l-0.4.28a2.82,2.82,0,0,1-.48.28,3.28,3.28,0,0,1-.63.23,3.43,3.43,0,0,1-.84.09,2.09,2.09,0,0,1-1.5-.59,2,2,0,0,1-.62-1.49,2.07,2.07,0,0,1,.32-1.2,2.13,2.13,0,0,1,.91-0.72,4.92,4.92,0,0,1,1.44-.36q0.84-.09,1.8-0.14v-0.17a1.31,1.31,0,0,0-.13-0.62,1,1,0,0,0-.38-0.39,1.56,1.56,0,0,0-.56-0.18,4.85,4.85,0,0,0-.69,0,4.65,4.65,0,0,0-1,.11,7.52,7.52,0,0,0-1.1.33H99.89V212.6q0.32-.09.93-0.19a7,7,0,0,1,1.2-.11,5.59,5.59,0,0,1,1.2.11,2.34,2.34,0,0,1,.89.39,1.73,1.73,0,0,1,.56.7,2.57,2.57,0,0,1,.19,1.06V219Zm-1.1-1.61v-1.82l-1.19.09a6.14,6.14,0,0,0-1.08.17,1.78,1.78,0,0,0-.77.42,1.21,1.21,0,0,0,0,1.63,1.59,1.59,0,0,0,1,.28,2.46,2.46,0,0,0,1.06-.23A4.78,4.78,0,0,0,103.77,217.39Z" transform="translate(0 -2.88)"/><path class="cls-1" d="M108.17,211.36h-1.24v-1.14h1.24v1.14ZM108.1,219H107v-6.54h1.1V219Z" transform="translate(0 -2.88)"/><path class="cls-1" d="M113.68,218.94a6,6,0,0,1-.68.13,4.64,4.64,0,0,1-.65.05,2,2,0,0,1-1.52-.54,2.42,2.42,0,0,1-.52-1.73v-3.48h-0.74v-0.93h0.74v-1.88h1.1v1.88h2.27v0.93H111.4v3q0,0.52,0,.81a1.32,1.32,0,0,0,.16.54,0.79,0.79,0,0,0,.35.34,1.66,1.66,0,0,0,.69.11,2.16,2.16,0,0,0,.56-0.08l0.42-.13h0.06v1Z" transform="translate(0 -2.88)"/><path class="cls-1" d="M119.68,217.11a1.78,1.78,0,0,1-.74,1.47,3.23,3.23,0,0,1-2,.57,4.85,4.85,0,0,1-1.33-.17,5.94,5.94,0,0,1-1-.38v-1.24h0.06a4.42,4.42,0,0,0,1.16.62,3.59,3.59,0,0,0,1.22.23,2.3,2.3,0,0,0,1.14-.23,0.79,0.79,0,0,0,.41-0.74,0.75,0.75,0,0,0-.22-0.59,2,2,0,0,0-.86-0.34l-0.61-.12-0.69-.15a2.29,2.29,0,0,1-1.22-.67,1.67,1.67,0,0,1-.36-1.09,1.78,1.78,0,0,1,.17-0.76,1.84,1.84,0,0,1,.51-0.64,2.43,2.43,0,0,1,.83-0.44,3.73,3.73,0,0,1,1.13-.16,5.09,5.09,0,0,1,1.19.14,4.48,4.48,0,0,1,1,.35V214h-0.06a3.94,3.94,0,0,0-1-.52,3.53,3.53,0,0,0-1.18-.21,2.07,2.07,0,0,0-1,.23,0.81,0.81,0,0,0-.16,1.3,2,2,0,0,0,.8.33l0.68,0.14,0.63,0.13a2.33,2.33,0,0,1,1.18.6A1.59,1.59,0,0,1,119.68,217.11Z" transform="translate(0 -2.88)"/><path class="cls-1" d="M129,210.95h-0.06l-0.47-.11a2.8,2.8,0,0,0-.52-0.06,1.43,1.43,0,0,0-1,.31,1.57,1.57,0,0,0-.32,1.13v0.22h2v0.93h-2V219h-1.1v-5.62h-0.74v-0.93h0.74v-0.22a2.53,2.53,0,0,1,.58-1.79,2.18,2.18,0,0,1,1.68-.62,5.68,5.68,0,0,1,.67,0l0.54,0.08v1Z" transform="translate(0 -2.88)"/><path class="cls-1" d="M135.28,215.73a3.67,3.67,0,0,1-.82,2.53,3.08,3.08,0,0,1-4.4,0,4.31,4.31,0,0,1,0-5.05,3.07,3.07,0,0,1,4.4,0A3.68,3.68,0,0,1,135.28,215.73Zm-1.14,0a3,3,0,0,0-.5-1.89,1.87,1.87,0,0,0-2.77,0,3.8,3.8,0,0,0,0,3.76,1.83,1.83,0,0,0,2.77,0A3,3,0,0,0,134.14,215.73Z" transform="translate(0 -2.88)"/><path class="cls-1" d="M141.06,213.66H141l-0.48-.08a4.92,4.92,0,0,0-.55,0,2.27,2.27,0,0,0-1,.23,4.53,4.53,0,0,0-.91.58V219H137v-6.54h1.1v1a5.4,5.4,0,0,1,1.16-.75,2.52,2.52,0,0,1,1-.22h0.42l0.39,0.06v1.13Z" transform="translate(0 -2.88)"/><path class="cls-1" d="M149.72,218.94a6,6,0,0,1-.68.13,4.64,4.64,0,0,1-.65.05,2,2,0,0,1-1.52-.54,2.42,2.42,0,0,1-.52-1.73v-3.48H145.6v-0.93h0.74v-1.88h1.1v1.88h2.27v0.93h-2.27v3q0,0.52,0,.81a1.32,1.32,0,0,0,.16.54,0.79,0.79,0,0,0,.35.34,1.66,1.66,0,0,0,.69.11,2.16,2.16,0,0,0,.56-0.08l0.42-.13h0.06v1Z" transform="translate(0 -2.88)"/><path class="cls-1" d="M156.52,219h-1.1v-3.73a6.42,6.42,0,0,0-.05-0.85,1.55,1.55,0,0,0-.19-0.62,0.89,0.89,0,0,0-.42-0.37,1.81,1.81,0,0,0-.71-0.12,2.29,2.29,0,0,0-.94.22,4.81,4.81,0,0,0-.94.57V219H151v-9.12h1.1v3.3a4.48,4.48,0,0,1,1.07-.67,2.8,2.8,0,0,1,1.13-.24,2,2,0,0,1,1.62.64,2.72,2.72,0,0,1,.56,1.84V219Z" transform="translate(0 -2.88)"/><path class="cls-1" d="M164.12,215.84H159.3a2.79,2.79,0,0,0,.18,1.05,1.94,1.94,0,0,0,1.22,1.16,2.89,2.89,0,0,0,.92.14,3.65,3.65,0,0,0,1.34-.27,3.31,3.31,0,0,0,1-.52H164v1.2a9.09,9.09,0,0,1-1.14.39,4.61,4.61,0,0,1-1.22.16,3.51,3.51,0,0,1-2.54-.88,3.32,3.32,0,0,1-.91-2.5,3.6,3.6,0,0,1,.88-2.55,3,3,0,0,1,2.31-.94,2.65,2.65,0,0,1,2,.77,3.11,3.11,0,0,1,.72,2.2v0.6ZM163,215a2,2,0,0,0-.44-1.34,1.68,1.68,0,0,0-1.31-.47,1.91,1.91,0,0,0-1.41.52,2,2,0,0,0-.59,1.29H163Z" transform="translate(0 -2.88)"/><path class="cls-1" d="M174.09,213.66H174l-0.48-.08a4.92,4.92,0,0,0-.55,0,2.27,2.27,0,0,0-1,.23,4.53,4.53,0,0,0-.91.58V219H170v-6.54h1.1v1a5.4,5.4,0,0,1,1.16-.75,2.52,2.52,0,0,1,1-.22h0.42l0.39,0.06v1.13Z" transform="translate(0 -2.88)"/><path class="cls-1" d="M180.61,215.84h-4.82a2.79,2.79,0,0,0,.18,1.05,1.94,1.94,0,0,0,1.22,1.16,2.89,2.89,0,0,0,.92.14,3.65,3.65,0,0,0,1.34-.27,3.31,3.31,0,0,0,1-.52h0.06v1.2a9.09,9.09,0,0,1-1.14.39,4.61,4.61,0,0,1-1.22.16,3.51,3.51,0,0,1-2.54-.88,3.32,3.32,0,0,1-.91-2.5,3.6,3.6,0,0,1,.88-2.55,3,3,0,0,1,2.31-.94,2.65,2.65,0,0,1,2,.77,3.11,3.11,0,0,1,.72,2.2v0.6Zm-1.07-.84a2,2,0,0,0-.44-1.34,1.68,1.68,0,0,0-1.31-.47,1.91,1.91,0,0,0-1.41.52,2,2,0,0,0-.59,1.29h3.75Z" transform="translate(0 -2.88)"/><path class="cls-1" d="M183.39,219h-1.1v-9.12h1.1V219Z" transform="translate(0 -2.88)"/><path class="cls-1" d="M191.05,215.84h-4.82a2.79,2.79,0,0,0,.18,1.05,1.94,1.94,0,0,0,1.22,1.16,2.89,2.89,0,0,0,.92.14,3.65,3.65,0,0,0,1.34-.27,3.31,3.31,0,0,0,1-.52h0.06v1.2a9.09,9.09,0,0,1-1.14.39,4.61,4.61,0,0,1-1.22.16,3.51,3.51,0,0,1-2.54-.88,3.32,3.32,0,0,1-.91-2.5,3.6,3.6,0,0,1,.88-2.55,3,3,0,0,1,2.31-.94,2.65,2.65,0,0,1,2,.77,3.11,3.11,0,0,1,.72,2.2v0.6ZM190,215a2,2,0,0,0-.44-1.34,1.68,1.68,0,0,0-1.31-.47,1.91,1.91,0,0,0-1.41.52,2,2,0,0,0-.59,1.29H190Z" transform="translate(0 -2.88)"/><path class="cls-1" d="M197.81,219h-1.1v-0.7l-0.4.28a2.82,2.82,0,0,1-.48.28,3.28,3.28,0,0,1-.63.23,3.43,3.43,0,0,1-.84.09,2.09,2.09,0,0,1-1.5-.59,2,2,0,0,1-.62-1.49,2.07,2.07,0,0,1,.32-1.2,2.13,2.13,0,0,1,.91-0.72,4.92,4.92,0,0,1,1.44-.36q0.84-.09,1.8-0.14v-0.17a1.31,1.31,0,0,0-.13-0.62,1,1,0,0,0-.38-0.39,1.56,1.56,0,0,0-.56-0.18,4.85,4.85,0,0,0-.69,0,4.65,4.65,0,0,0-1,.11,7.52,7.52,0,0,0-1.1.33h-0.06V212.6q0.32-.09.93-0.19a7,7,0,0,1,1.2-.11,5.59,5.59,0,0,1,1.2.11,2.34,2.34,0,0,1,.89.39,1.73,1.73,0,0,1,.56.7,2.57,2.57,0,0,1,.19,1.06V219Zm-1.1-1.61v-1.82l-1.19.09a6.14,6.14,0,0,0-1.08.17,1.78,1.78,0,0,0-.77.42,1.21,1.21,0,0,0,0,1.63,1.59,1.59,0,0,0,1,.28,2.46,2.46,0,0,0,1.06-.23A4.78,4.78,0,0,0,196.71,217.39Z" transform="translate(0 -2.88)"/><path class="cls-1" d="M204.6,217.11a1.78,1.78,0,0,1-.74,1.47,3.23,3.23,0,0,1-2,.57,4.85,4.85,0,0,1-1.33-.17,5.94,5.94,0,0,1-1-.38v-1.24h0.06a4.42,4.42,0,0,0,1.16.62,3.59,3.59,0,0,0,1.22.23,2.3,2.3,0,0,0,1.14-.23,0.79,0.79,0,0,0,.41-0.74,0.75,0.75,0,0,0-.22-0.59,2,2,0,0,0-.86-0.34l-0.61-.12-0.69-.15a2.29,2.29,0,0,1-1.22-.67,1.67,1.67,0,0,1-.36-1.09,1.78,1.78,0,0,1,.17-0.76,1.84,1.84,0,0,1,.51-0.64,2.43,2.43,0,0,1,.83-0.44,3.73,3.73,0,0,1,1.13-.16,5.09,5.09,0,0,1,1.19.14,4.48,4.48,0,0,1,1,.35V214h-0.06a3.94,3.94,0,0,0-1-.52,3.53,3.53,0,0,0-1.18-.21,2.07,2.07,0,0,0-1,.23,0.81,0.81,0,0,0-.16,1.3,2,2,0,0,0,.8.33l0.68,0.14,0.63,0.13a2.33,2.33,0,0,1,1.18.6A1.59,1.59,0,0,1,204.6,217.11Z" transform="translate(0 -2.88)"/><path class="cls-1" d="M211.66,215.84h-4.82a2.79,2.79,0,0,0,.18,1.05,1.94,1.94,0,0,0,1.22,1.16,2.89,2.89,0,0,0,.92.14,3.65,3.65,0,0,0,1.34-.27,3.31,3.31,0,0,0,1-.52h0.06v1.2a9.09,9.09,0,0,1-1.14.39,4.61,4.61,0,0,1-1.22.16,3.51,3.51,0,0,1-2.54-.88,3.32,3.32,0,0,1-.91-2.5,3.6,3.6,0,0,1,.88-2.55,3,3,0,0,1,2.31-.94,2.65,2.65,0,0,1,2,.77,3.11,3.11,0,0,1,.72,2.2v0.6Zm-1.07-.84a2,2,0,0,0-.44-1.34,1.68,1.68,0,0,0-1.31-.47,1.91,1.91,0,0,0-1.41.52,2,2,0,0,0-.59,1.29h3.75Z" transform="translate(0 -2.88)"/><path class="cls-1" d="M223.13,215.73a3.67,3.67,0,0,1-.82,2.53,3.08,3.08,0,0,1-4.4,0,4.31,4.31,0,0,1,0-5.05,3.07,3.07,0,0,1,4.4,0A3.68,3.68,0,0,1,223.13,215.73Zm-1.14,0a3,3,0,0,0-.5-1.89,1.87,1.87,0,0,0-2.77,0,3.8,3.8,0,0,0,0,3.76,1.83,1.83,0,0,0,2.77,0A3,3,0,0,0,222,215.73Z" transform="translate(0 -2.88)"/><path class="cls-1" d="M228.35,210.95h-0.06l-0.47-.11a2.8,2.8,0,0,0-.52-0.06,1.43,1.43,0,0,0-1,.31,1.57,1.57,0,0,0-.32,1.13v0.22h2v0.93h-2V219h-1.1v-5.62h-0.74v-0.93h0.74v-0.22a2.53,2.53,0,0,1,.58-1.79,2.18,2.18,0,0,1,1.68-.62,5.68,5.68,0,0,1,.67,0l0.54,0.08v1Z" transform="translate(0 -2.88)"/><path class="cls-1" d="M236.67,218.94a6,6,0,0,1-.68.13,4.64,4.64,0,0,1-.65.05,2,2,0,0,1-1.52-.54,2.42,2.42,0,0,1-.52-1.73v-3.48h-0.74v-0.93h0.74v-1.88h1.1v1.88h2.27v0.93h-2.27v3q0,0.52,0,.81a1.32,1.32,0,0,0,.16.54,0.79,0.79,0,0,0,.35.34,1.66,1.66,0,0,0,.69.11,2.16,2.16,0,0,0,.56-0.08l0.42-.13h0.06v1Z" transform="translate(0 -2.88)"/><path class="cls-1" d="M243.47,219h-1.1v-3.73a6.42,6.42,0,0,0-.05-0.85,1.55,1.55,0,0,0-.19-0.62,0.89,0.89,0,0,0-.42-0.37,1.81,1.81,0,0,0-.71-0.12,2.29,2.29,0,0,0-.94.22,4.81,4.81,0,0,0-.94.57V219H238v-9.12h1.1v3.3a4.48,4.48,0,0,1,1.07-.67,2.8,2.8,0,0,1,1.13-.24,2,2,0,0,1,1.62.64,2.72,2.72,0,0,1,.56,1.84V219Z" transform="translate(0 -2.88)"/><path class="cls-1" d="M251.07,215.84h-4.82a2.79,2.79,0,0,0,.18,1.05,1.94,1.94,0,0,0,1.22,1.16,2.89,2.89,0,0,0,.92.14,3.65,3.65,0,0,0,1.34-.27,3.31,3.31,0,0,0,1-.52h0.06v1.2a9.09,9.09,0,0,1-1.14.39,4.61,4.61,0,0,1-1.22.16,3.51,3.51,0,0,1-2.54-.88,3.32,3.32,0,0,1-.91-2.5,3.6,3.6,0,0,1,.88-2.55,3,3,0,0,1,2.31-.94,2.65,2.65,0,0,1,2,.77,3.11,3.11,0,0,1,.72,2.2v0.6ZM250,215a2,2,0,0,0-.44-1.34,1.68,1.68,0,0,0-1.31-.47,1.91,1.91,0,0,0-1.41.52,2,2,0,0,0-.59,1.29H250Z" transform="translate(0 -2.88)"/><path class="cls-1" d="M258.07,219H257v-9.12h1.1V219Z" transform="translate(0 -2.88)"/><path class="cls-1" d="M265.83,215.73a3.67,3.67,0,0,1-.82,2.53,3.08,3.08,0,0,1-4.4,0,4.31,4.31,0,0,1,0-5.05,3.07,3.07,0,0,1,4.4,0A3.68,3.68,0,0,1,265.83,215.73Zm-1.14,0a3,3,0,0,0-.5-1.89,1.87,1.87,0,0,0-2.77,0,3.8,3.8,0,0,0,0,3.76,1.83,1.83,0,0,0,2.77,0A3,3,0,0,0,264.69,215.73Z" transform="translate(0 -2.88)"/><path class="cls-1" d="M272.37,218.59a7.11,7.11,0,0,1-1,.41,3.69,3.69,0,0,1-1.05.15,3.9,3.9,0,0,1-1.3-.21,2.66,2.66,0,0,1-1-.63,2.83,2.83,0,0,1-.66-1.07,4.4,4.4,0,0,1-.23-1.51,3.48,3.48,0,0,1,.88-2.52,3.09,3.09,0,0,1,2.33-.91,3.92,3.92,0,0,1,1.1.16,5.78,5.78,0,0,1,1,.39v1.22h-0.06a4.19,4.19,0,0,0-1-.6,2.85,2.85,0,0,0-1-.21,1.85,1.85,0,0,0-1.48.63,3.4,3.4,0,0,0,0,3.67,1.83,1.83,0,0,0,1.49.64,2.75,2.75,0,0,0,.68-0.09,3,3,0,0,0,.62-0.23,5,5,0,0,0,.45-0.26l0.33-.24h0.06v1.21Z" transform="translate(0 -2.88)"/><path class="cls-1" d="M279.73,219h-1.45l-2.62-2.87-0.71.68V219h-1.1v-9.12h1.1v5.85l3.18-3.28h1.39l-3,3Z" transform="translate(0 -2.88)"/><path class="cls-1" d="M286.24,215.84h-4.82a2.79,2.79,0,0,0,.18,1.05,1.94,1.94,0,0,0,1.22,1.16,2.89,2.89,0,0,0,.92.14,3.65,3.65,0,0,0,1.34-.27,3.31,3.31,0,0,0,1-.52h0.06v1.2A9.09,9.09,0,0,1,285,219a4.61,4.61,0,0,1-1.22.16,3.51,3.51,0,0,1-2.54-.88,3.32,3.32,0,0,1-.91-2.5,3.6,3.6,0,0,1,.88-2.55,3,3,0,0,1,2.31-.94,2.65,2.65,0,0,1,2,.77,3.11,3.11,0,0,1,.72,2.2v0.6Zm-1.07-.84a2,2,0,0,0-.44-1.34,1.68,1.68,0,0,0-1.31-.47,1.91,1.91,0,0,0-1.41.52,2,2,0,0,0-.59,1.29h3.75Z" transform="translate(0 -2.88)"/><path class="cls-1" d="M293.22,219h-1.1v-0.69a4,4,0,0,1-1,.64,2.73,2.73,0,0,1-1.12.23,2.22,2.22,0,0,1-1.86-.9,4,4,0,0,1-.69-2.5,4.31,4.31,0,0,1,.24-1.48,3.42,3.42,0,0,1,.64-1.11,2.72,2.72,0,0,1,2-.91,3.49,3.49,0,0,1,.91.11,4.24,4.24,0,0,1,.84.34v-2.84h1.1V219Zm-1.1-1.61v-3.76a4.14,4.14,0,0,0-.8-0.28,3.63,3.63,0,0,0-.77-0.08,1.74,1.74,0,0,0-1.44.64,2.86,2.86,0,0,0-.52,1.83,3.24,3.24,0,0,0,.4,1.77,1.42,1.42,0,0,0,1.28.61,2.38,2.38,0,0,0,.95-0.21A4,4,0,0,0,292.12,217.39Z" transform="translate(0 -2.88)"/><path class="cls-1" d="M304.28,217.11a1.78,1.78,0,0,1-.74,1.47,3.23,3.23,0,0,1-2,.57,4.85,4.85,0,0,1-1.33-.17,5.94,5.94,0,0,1-1-.38v-1.24h0.06a4.42,4.42,0,0,0,1.16.62,3.59,3.59,0,0,0,1.22.23,2.3,2.3,0,0,0,1.14-.23,0.79,0.79,0,0,0,.41-0.74,0.75,0.75,0,0,0-.22-0.59,2,2,0,0,0-.86-0.34l-0.61-.12-0.69-.15a2.29,2.29,0,0,1-1.22-.67,1.67,1.67,0,0,1-.36-1.09,1.78,1.78,0,0,1,.17-0.76,1.84,1.84,0,0,1,.51-0.64,2.43,2.43,0,0,1,.83-0.44,3.73,3.73,0,0,1,1.13-.16,5.09,5.09,0,0,1,1.19.14,4.48,4.48,0,0,1,1,.35V214H304a3.94,3.94,0,0,0-1-.52,3.53,3.53,0,0,0-1.18-.21,2.07,2.07,0,0,0-1,.23,0.81,0.81,0,0,0-.16,1.3,2,2,0,0,0,.8.33l0.68,0.14,0.63,0.13a2.33,2.33,0,0,1,1.18.6A1.59,1.59,0,0,1,304.28,217.11Z" transform="translate(0 -2.88)"/><path class="cls-1" d="M311.34,215.84h-4.82a2.79,2.79,0,0,0,.18,1.05,1.94,1.94,0,0,0,1.22,1.16,2.89,2.89,0,0,0,.92.14,3.65,3.65,0,0,0,1.34-.27,3.31,3.31,0,0,0,1-.52h0.06v1.2a9.09,9.09,0,0,1-1.14.39,4.61,4.61,0,0,1-1.22.16,3.51,3.51,0,0,1-2.54-.88,3.32,3.32,0,0,1-.91-2.5,3.6,3.6,0,0,1,.88-2.55,3,3,0,0,1,2.31-.94,2.65,2.65,0,0,1,2,.77,3.11,3.11,0,0,1,.72,2.2v0.6Zm-1.07-.84a2,2,0,0,0-.44-1.34,1.68,1.68,0,0,0-1.31-.47,1.91,1.91,0,0,0-1.41.52,2,2,0,0,0-.59,1.29h3.75Z" transform="translate(0 -2.88)"/><path class="cls-1" d="M317.85,218.59a7.11,7.11,0,0,1-1,.41,3.69,3.69,0,0,1-1.05.15,3.9,3.9,0,0,1-1.3-.21,2.66,2.66,0,0,1-1-.63,2.83,2.83,0,0,1-.66-1.07,4.4,4.4,0,0,1-.23-1.51,3.48,3.48,0,0,1,.88-2.52,3.09,3.09,0,0,1,2.33-.91,3.92,3.92,0,0,1,1.1.16,5.78,5.78,0,0,1,1,.39v1.22h-0.06a4.19,4.19,0,0,0-1-.6,2.85,2.85,0,0,0-1-.21,1.85,1.85,0,0,0-1.48.63,3.4,3.4,0,0,0,0,3.67,1.83,1.83,0,0,0,1.49.64,2.75,2.75,0,0,0,.68-0.09,3,3,0,0,0,.62-0.23,5,5,0,0,0,.45-0.26l0.33-.24h0.06v1.21Z" transform="translate(0 -2.88)"/><path class="cls-1" d="M322.66,218.94a6,6,0,0,1-.68.13,4.64,4.64,0,0,1-.65.05,2,2,0,0,1-1.52-.54,2.42,2.42,0,0,1-.52-1.73v-3.48h-0.74v-0.93h0.74v-1.88h1.1v1.88h2.27v0.93h-2.27v3q0,0.52,0,.81a1.32,1.32,0,0,0,.16.54,0.79,0.79,0,0,0,.35.34,1.66,1.66,0,0,0,.69.11,2.16,2.16,0,0,0,.56-0.08l0.42-.13h0.06v1Z" transform="translate(0 -2.88)"/><path class="cls-1" d="M325.17,211.36h-1.24v-1.14h1.24v1.14ZM325.1,219H324v-6.54h1.1V219Z" transform="translate(0 -2.88)"/><path class="cls-1" d="M332.86,215.73a3.67,3.67,0,0,1-.82,2.53,3.08,3.08,0,0,1-4.4,0,4.31,4.31,0,0,1,0-5.05,3.07,3.07,0,0,1,4.4,0A3.68,3.68,0,0,1,332.86,215.73Zm-1.14,0a3,3,0,0,0-.5-1.89,1.87,1.87,0,0,0-2.77,0,3.8,3.8,0,0,0,0,3.76,1.83,1.83,0,0,0,2.77,0A3,3,0,0,0,331.72,215.73Z" transform="translate(0 -2.88)"/><path class="cls-1" d="M340,219h-1.1v-3.73a6.42,6.42,0,0,0-.05-0.85,1.55,1.55,0,0,0-.19-0.62,0.89,0.89,0,0,0-.42-0.37,1.81,1.81,0,0,0-.71-0.12,2.29,2.29,0,0,0-.94.22,4.81,4.81,0,0,0-.94.57V219h-1.1v-6.54h1.1v0.73a4.48,4.48,0,0,1,1.07-.67,2.8,2.8,0,0,1,1.13-.24,2,2,0,0,1,1.62.64,2.72,2.72,0,0,1,.56,1.84V219Z" transform="translate(0 -2.88)"/><path class="cls-5" d="M357.54,147a30.23,30.23,0,0,0-8.55,4.75l1.72-4.75L349,142.25A30.21,30.21,0,0,0,357.54,147Z" transform="translate(0 -2.88)"/><line class="cls-2" x1="0.5" y1="144.12" x2="351.5" y2="144.12"/><path class="cls-1" d="M357.54,147a30.23,30.23,0,0,0-8.55,4.75l1.72-4.75L349,142.25A30.21,30.21,0,0,0,357.54,147Z" transform="translate(0 -2.88)"/></svg>