<?xml version="1.0" encoding="utf-8"?>
<!-- Generator: Adobe Illustrator 18.1.0, SVG Export Plug-In . SVG Version: 6.00 Build 0)  -->
<!DOCTYPE svg PUBLIC "-//W3C//DTD SVG 1.1//EN" "http://www.w3.org/Graphics/SVG/1.1/DTD/svg11.dtd">
<svg version="1.1" id="Ebene_1" xmlns="http://www.w3.org/2000/svg" xmlns:xlink="http://www.w3.org/1999/xlink" x="0px" y="0px"
	 viewBox="0 0 360.5 211.1" enable-background="new 0 0 360.5 211.1" xml:space="preserve">
<rect x="33.5" y="-23.5" fill="none" width="0" height="48"/>
<rect x="33.5" y="12.5" fill="none" width="0" height="48"/>
<rect x="33.5" y="48.5" fill="none" width="0" height="48"/>
<text transform="matrix(1 0 0 1 153.5 153.5)" font-family="'Verdana'" font-size="12">time</text>
<line fill="none" stroke="#000000" x1="0.5" y1="45.5" x2="360.5" y2="45.5"/>
<line fill="none" stroke="#000000" x1="0.5" y1="81.5" x2="360.5" y2="81.5"/>
<rect x="99.5" y="36.5" fill="#13A538" stroke="#000000" width="198" height="18"/>
<rect x="126.5" y="72.5" fill="#E30613" stroke="#000000" width="90" height="18"/>
<rect x="216.5" y="72.5" fill="#13A538" stroke="#000000" width="108" height="18"/>
<line fill="none" stroke="#000000" x1="0.5" y1="9.5" x2="360.5" y2="9.5"/>
<rect x="72.5" y="0.5" fill="#13A538" stroke="#000000" width="144" height="18"/>
<rect x="0.5" y="180.5" fill="#13A538" stroke="#000000" width="36" height="9"/>
<text transform="matrix(1 0 0 1 45.5 189.5)" font-family="'Verdana'" font-size="12">thead is running inside of the locked section</text>
<rect x="0.5" y="198.5" fill="#E30613" stroke="#000000" width="36" height="9"/>
<text transform="matrix(1 0 0 1 45.5 207.5)" font-family="'Verdana'" font-size="12">thread waits for the release of the locked section</text>
<g>
	<g>
		<path fill="#FFFFFF" d="M357.5,135.5c-2.8,1.1-6.4,2.9-8.5,4.8l1.7-4.8l-1.7-4.8C351.2,132.6,354.7,134.4,357.5,135.5z"/>
	</g>
	<g>
		<line fill="none" stroke="#000000" x1="0.5" y1="135.5" x2="351.5" y2="135.5"/>
		<path d="M357.5,135.5c-2.8,1.1-6.4,2.9-8.5,4.8l1.7-4.8l-1.7-4.8C351.2,132.6,354.7,134.4,357.5,135.5z"/>
	</g>
</g>
</svg>
