<svg id="Ebene_1" data-name="Ebene 1" xmlns="http://www.w3.org/2000/svg" viewBox="0 0 360.5 221"><defs><style>.cls-1{font-size:12px;font-family:Verdana;}.cls-1,.cls-6{fill:#1d1d1b;}.cls-2{fill:none;}.cls-2,.cls-3,.cls-4{stroke:#1d1d1b;}.cls-3{fill:#13a538;}.cls-4{fill:#e30613;}.cls-5{fill:#fff;}</style></defs><title>lock-chart</title><text class="cls-1" transform="translate(9.5 10.36)">k</text><text class="cls-1" transform="translate(16.48 10.36)">ey = A</text><text class="cls-1" transform="translate(9.5 46.36)">k</text><text class="cls-1" transform="translate(16.48 46.36)">ey = B</text><text class="cls-1" transform="translate(9.5 82.36)">k</text><text class="cls-1" transform="translate(16.48 82.36)">ey = A</text><text class="cls-1" transform="translate(153.5 163.36)">time</text><line class="cls-2" x1="0.5" y1="55.36" x2="360.5" y2="55.36"/><line class="cls-2" x1="0.5" y1="91.36" x2="360.5" y2="91.36"/><rect class="cls-3" x="99.5" y="46.36" width="198" height="18"/><rect class="cls-4" x="126.5" y="82.36" width="90" height="18"/><rect class="cls-3" x="216.5" y="82.36" width="108" height="18"/><line class="cls-2" x1="0.5" y1="19.36" x2="360.5" y2="19.36"/><rect class="cls-3" x="72.5" y="10.36" width="144" height="18"/><rect class="cls-3" x="0.5" y="190.36" width="36" height="9"/><text class="cls-1" transform="translate(45.5 199.36)">thead is running inside of the lock</text><text class="cls-1" transform="translate(250.62 199.36)">ed section</text><rect class="cls-4" x="0.5" y="208.36" width="36" height="9"/><text class="cls-1" transform="translate(45.5 217.36)">thread w</text><text class="cls-1" transform="translate(98.7 217.36)">aits for the release of the lock</text><text class="cls-1" transform="translate(279.68 217.36)">ed section</text><path class="cls-5" d="M357.54,147a30.23,30.23,0,0,0-8.55,4.75l1.72-4.75L349,142.25A30.21,30.21,0,0,0,357.54,147Z" transform="translate(0 -1.64)"/><line class="cls-2" x1="0.5" y1="145.36" x2="351.5" y2="145.36"/><path class="cls-6" d="M357.54,147a30.23,30.23,0,0,0-8.55,4.75l1.72-4.75L349,142.25A30.21,30.21,0,0,0,357.54,147Z" transform="translate(0 -1.64)"/></svg>